<?xml version="1.0" encoding="UTF-8" standalone="no"?>
<!-- Created with Inkscape (http://www.inkscape.org/) -->

<svg
   xmlns:dc="http://purl.org/dc/elements/1.1/"
   xmlns:cc="http://creativecommons.org/ns#"
   xmlns:rdf="http://www.w3.org/1999/02/22-rdf-syntax-ns#"
   xmlns:svg="http://www.w3.org/2000/svg"
   xmlns="http://www.w3.org/2000/svg"
   xmlns:sodipodi="http://sodipodi.sourceforge.net/DTD/sodipodi-0.dtd"
   xmlns:inkscape="http://www.inkscape.org/namespaces/inkscape"
   id="svg3165"
   version="1.1"
   inkscape:version="0.48.4 r9939"
   width="625"
   height="625"
   viewBox="0 0 625 625"
   xml:space="preserve"
   sodipodi:docname="Mensen.pdf"><metadata
     id="metadata3171"><rdf:RDF><cc:Work
         rdf:about=""><dc:format>image/svg+xml</dc:format><dc:type
           rdf:resource="http://purl.org/dc/dcmitype/StillImage" /><dc:title></dc:title></cc:Work></rdf:RDF></metadata><defs
     id="defs3169"><clipPath
       clipPathUnits="userSpaceOnUse"
       id="clipPath3185"><path
         d="M 0,500 500,500 500,0 0,0 0,500 z"
         id="path3187" /></clipPath></defs><sodipodi:namedview
     pagecolor="#ffffff"
     bordercolor="#666666"
     borderopacity="1"
     objecttolerance="10"
     gridtolerance="10"
     guidetolerance="10"
     inkscape:pageopacity="0"
     inkscape:pageshadow="2"
     inkscape:window-width="640"
     inkscape:window-height="480"
     id="namedview3167"
     showgrid="false"
     inkscape:zoom="0.3776"
     inkscape:cx="312.5"
     inkscape:cy="312.5"
     inkscape:window-x="0"
     inkscape:window-y="0"
     inkscape:window-maximized="0"
     inkscape:current-layer="g3173" /><g
     id="g3173"
     inkscape:groupmode="layer"
     inkscape:label="Mensen"
     transform="matrix(1.25,0,0,-1.25,0,625)"><g
       id="g3177"
       transform="translate(419.9014,350.3262)"><path
         d="m 0,0 -27.982,-220.326 -94.482,0 L -150.359,0 -34.976,0 -12.134,79.674 0.78,76.048 -21.068,0.043 0,0 z"
         style="fill:#ffffff;fill-opacity:1;fill-rule:nonzero;stroke:none"
         id="path3179" /></g><g
       id="g3181"><g
         id="g3183"
         clip-path="url(#clipPath3185)"><g
           id="g3189"
           transform="translate(256.1934,222.0283)"><path
             d="m 0,0 c 0,0 3.541,32.043 -45.47,32.043 l -78.074,0 C -172.472,32.043 -169.018,0 -169.018,0 L 0,0 z"
             style="fill:#ffffff;fill-opacity:1;fill-rule:nonzero;stroke:none"
             id="path3191" /></g><g
           id="g3193"
           transform="translate(87.1758,162.1299)"><path
             d="m 0,0 c 0,0 -3.454,-32.13 45.474,-32.13 l 78.073,0 C 172.559,-32.13 169.018,0 169.018,0 L 0,0 z"
             style="fill:#ffffff;fill-opacity:1;fill-rule:nonzero;stroke:none"
             id="path3195" /></g><g
           id="g3197"
           transform="translate(248.8564,177.6377)"><path
             d="M 0,0 C 8.03,0 14.508,6.521 14.508,14.508 14.508,22.455 8.03,28.929 0,28.929 l -155.03,0 c -7.988,0 -14.508,-6.474 -14.508,-14.421 0,-7.987 6.52,-14.508 14.508,-14.508 L 0,0 z"
             style="fill:#ffffff;fill-opacity:1;fill-rule:nonzero;stroke:none"
             id="path3199" /></g></g></g></g></svg>