<?xml version="1.0" encoding="UTF-8" standalone="no"?>
<!-- Created with Inkscape (http://www.inkscape.org/) -->

<svg
   xmlns:dc="http://purl.org/dc/elements/1.1/"
   xmlns:cc="http://creativecommons.org/ns#"
   xmlns:rdf="http://www.w3.org/1999/02/22-rdf-syntax-ns#"
   xmlns:svg="http://www.w3.org/2000/svg"
   xmlns="http://www.w3.org/2000/svg"
   xmlns:sodipodi="http://sodipodi.sourceforge.net/DTD/sodipodi-0.dtd"
   xmlns:inkscape="http://www.inkscape.org/namespaces/inkscape"
   id="svg3137"
   version="1.1"
   inkscape:version="0.48.4 r9939"
   width="625"
   height="625"
   viewBox="0 0 625 625"
   xml:space="preserve"
   sodipodi:docname="Karte.pdf"><metadata
     id="metadata3143"><rdf:RDF><cc:Work
         rdf:about=""><dc:format>image/svg+xml</dc:format><dc:type
           rdf:resource="http://purl.org/dc/dcmitype/StillImage" /><dc:title></dc:title></cc:Work></rdf:RDF></metadata><defs
     id="defs3141"><clipPath
       clipPathUnits="userSpaceOnUse"
       id="clipPath3153"><path
         d="M 0,500 500,500 500,0 0,0 0,500 z"
         id="path3155" /></clipPath></defs><sodipodi:namedview
     pagecolor="#ffffff"
     bordercolor="#666666"
     borderopacity="1"
     objecttolerance="10"
     gridtolerance="10"
     guidetolerance="10"
     inkscape:pageopacity="0"
     inkscape:pageshadow="2"
     inkscape:window-width="1280"
     inkscape:window-height="747"
     id="namedview3139"
     showgrid="false"
     inkscape:zoom="0.3776"
     inkscape:cx="312.5"
     inkscape:cy="312.5"
     inkscape:window-x="-8"
     inkscape:window-y="-8"
     inkscape:window-maximized="1"
     inkscape:current-layer="g3145" /><g
     id="g3145"
     inkscape:groupmode="layer"
     inkscape:label="Karte"
     transform="matrix(1.25,0,0,-1.25,0,625)"><g
       id="g3149"><g
         id="g3151"
         clip-path="url(#clipPath3153)"><g
           id="g3157"
           transform="translate(272.7178,306.4351)"><path
             d="M 0,0 C 0.066,0.531 0.485,0.919 0.582,1.44 0.63,1.677 0.549,1.798 0.348,1.82 0.317,1.823 0.287,1.822 0.257,1.817 0.122,1.791 0.002,1.712 -0.139,1.695 -0.587,1.648 -0.536,1.85 -0.926,1.621 -1.126,1.505 -1.305,1.352 -1.538,1.296 -1.761,1.248 -1.96,1.391 -2.184,1.369 -2.487,1.344 -2.675,1.029 -2.993,1.037 -3.416,1.048 -3.69,1.417 -4.089,1.488 -4.343,1.534 -4.487,1.247 -4.731,1.266 -4.979,1.287 -4.908,1.386 -5.109,1.451 -5.421,1.556 -5.78,0.432 -5.717,0.321 c 0.1,-0.169 0.249,-0.195 0.334,-0.201 0.007,0 0.016,-0.001 0.023,-0.002 0.168,-0.014 0.305,0.113 0.475,0.123 0.475,0.031 2.003,-1.025 2.53,-1.25 0.169,-0.073 0.36,-0.099 0.519,-0.197 0.304,-0.184 0.526,-0.477 0.845,-0.629 0.107,-0.052 0.286,-0.136 0.542,-0.091 0.18,0.03 0.449,0.08 0.731,1.012 C 0.402,-0.541 -0.045,-0.346 0,0 m 120.046,-17.42 c 0.1,-0.308 0.201,-0.645 0.302,-0.974 -12.078,45.62 -45.363,82.565 -88.689,99.666 0.3,-0.238 0.465,-0.62 0.402,-1.014 -0.118,-0.734 -0.977,-0.943 -1.043,-1.118 -0.205,-0.537 1.181,-1.244 1.588,-1.652 0.224,-0.225 0.233,-0.589 0.019,-0.824 -0.005,-0.004 -0.013,-0.007 -0.019,-0.005 -0.685,0.165 -1.409,-0.011 -1.941,-0.472 -0.521,-0.451 -1.259,-0.769 -1.693,-0.928 -0.254,-0.093 -0.493,-0.24 -0.693,-0.426 0,0 -0.001,-0.001 -0.002,-0.002 -0.241,0.072 -0.496,0.065 -0.73,-0.022 -0.969,-0.356 -1.523,-2.19 -1.323,-2.867 0.074,-0.264 0.022,-0.554 -0.156,-0.776 -0.226,-0.283 -0.604,-0.392 -0.947,-0.275 -0.201,0.069 -0.766,-0.414 -0.49,-0.624 0.324,-0.246 -0.121,-0.426 -0.454,-0.659 -0.163,-0.113 -0.373,-0.153 -0.577,-0.091 -1.182,0.358 -1.112,0.654 -1.472,-0.267 -0.172,-0.433 -0.406,-0.841 -0.694,-1.206 -0.185,-0.233 -0.164,-0.568 0.051,-0.776 1.741,-1.677 -0.766,-1.408 -1.665,-1 -0.814,0.368 -1.289,-1.015 0.22,-1.02 0.412,-0.003 0.805,-0.179 1.082,-0.486 -0.002,0.001 0,0 0,0 0.775,-0.859 -1.004,-0.577 -2.101,-0.19 -0.933,0.33 -1.821,0.817 -2.6,1.432 -0.491,0.391 -0.678,1.052 -0.464,1.642 0.213,0.59 0.782,0.977 1.41,0.96 0.907,-0.024 1.68,0.648 1.785,1.547 0.105,0.9 -0.496,1.73 -1.383,1.916 -2.179,0.454 -4.601,0.174 -6.62,1.109 -1.74,0.805 -3.186,0.661 -3.628,1.248 C 7.33,74.682 7.25,75.002 7.3,75.316 l 0,10e-4 c -0.938,0.182 -1.532,0.296 -1.935,0.377 -0.386,0.078 -1.566,0.098 -3.177,-0.406 -3.479,-1.103 -6.776,-4.33 -6.776,-4.33 l -0.002,0 c 0,0 -0.66,-1.133 -1.304,-1.867 -0.583,-0.67 -1.028,-1.478 -1.679,-2.084 -0.258,-0.238 -0.433,-0.551 -0.502,-0.894 0,-0.001 0,-0.003 -0.002,-0.003 -0.005,-0.001 -0.008,-0.002 -0.011,-0.003 -0.34,-0.096 -0.604,-0.364 -0.7,-0.705 -0.425,-1.507 -1.609,-3.755 -7.974,-6.431 -0.001,0 -0.002,0 -0.003,0 -1.868,-0.79 -3.045,-2.664 -2.941,-4.69 0.103,-2.026 1.461,-3.773 3.399,-4.37 2.407,-0.741 2.959,1.921 5.681,1.11 1.024,-0.306 1.842,-1.08 2.202,-2.086 0.445,-1.242 1.057,-1.973 1.114,-3.56 0.543,-0.543 2.136,-1.74 2.323,-0.928 0.451,1.928 2.403,0.663 3.244,2.262 0.72,1.374 -0.361,2.82 0.167,4.203 0.003,0.01 0.008,0.02 0.012,0.031 0.665,1.626 0.835,3.39 0.502,5.112 -0.157,0.803 0.047,2.021 0.432,4.335 0.154,0.901 1.927,1.371 2.349,2.036 0.737,1.149 -0.493,3.348 1.344,3.759 0.916,0.205 2.568,-0.22 2.783,-1.171 C 5.924,64.676 5.843,64.321 5.629,64.049 5.108,63.385 4.875,62.475 4.41,61.765 3.473,60.333 3.268,58.533 3.868,56.928 c 0.516,-1.383 1.347,-2.634 2.667,-2.74 0.379,-0.03 0.758,0.065 1.078,0.273 0.002,0.001 0.002,0.002 0.003,0.004 0.003,0 0.006,0.002 0.008,0.003 0.004,10e-4 0.005,10e-4 0.009,0.003 l 1.891,0.662 c 1.569,0.549 3.262,0.657 4.885,0.304 l 0.002,0 c 0.154,-0.033 0.276,-0.151 0.318,-0.305 0.041,-0.152 -0.01,-0.316 -0.127,-0.42 -1.964,-1.747 -2.337,-0.587 -4.4,-0.964 -0.707,-0.127 -1.25,-0.696 -1.339,-1.409 -0.081,-0.64 0.222,-1.264 0.758,-1.6 0.106,-0.066 0.169,-0.187 0.158,-0.312 l 0,-0.011 C 9.733,49.792 9.343,49.247 8.769,49.002 8.335,48.817 7.85,48.827 7.433,49.016 7.107,49.161 6.731,49.13 6.436,48.935 5.845,48.545 6.055,48.263 5.94,47.746 5.757,46.92 5.804,46.059 6.076,45.26 6.078,45.259 6.078,45.259 6.078,45.258 6.527,43.945 4.1,41.593 3.117,41.774 c -1.994,0.367 -4.055,0.052 -5.846,-0.9 -0.847,-0.45 -1.885,-0.316 -2.591,0.333 -0.006,0.004 -0.009,0.007 -0.013,0.012 -0.472,0.431 -0.023,0.623 -0.614,0.993 -0.123,0.079 -3.24,-1.222 -3.378,-1.272 -0.143,-0.051 -0.301,-0.035 -0.43,0.046 -0.129,0.081 -0.213,0.217 -0.226,0.369 -0.002,0.005 -0.002,0.01 -0.004,0.015 -0.109,0.898 -4.152,0.784 -0.998,4.285 0.005,0.006 0.009,0.011 0.015,0.017 0.326,0.359 0.474,0.85 0.397,1.33 -0.126,0.803 0.039,1.565 -0.706,1.879 -0.003,-0.003 -0.006,-0.005 -0.008,-0.008 -1.653,-1.725 -2.442,-4.112 -2.139,-6.481 0.203,-2.634 -1.059,-2.192 -2.02,-2.164 -0.405,0.012 -0.79,-0.158 -1.057,-0.463 -0.002,-0.004 -0.006,-0.009 -0.009,-0.013 -0.385,0 -0.93,0 -1.849,-0.086 -0.393,-0.037 -0.752,-0.237 -0.99,-0.549 -0.026,-0.034 -0.037,-0.077 -0.029,-0.118 0.032,-0.22 -0.108,-0.428 -0.326,-0.48 -0.71,-0.167 -1.358,-0.507 -1.898,-0.996 -1.257,-1.138 -1.898,-1.615 -3.214,-2.35 -0.923,-0.513 -1.735,-1.176 -2.426,-1.974 -0.288,-0.333 -0.905,-0.699 -2.361,-1.524 -0.133,-0.075 -0.23,-0.204 -0.265,-0.355 -0.073,-0.315 -0.333,-0.551 -0.653,-0.599 -1.295,-0.187 -1.668,0.129 -2.413,0.617 -0.381,0.251 -0.678,-0.27 -0.582,-0.61 0.002,-0.006 0.003,-0.011 0.004,-0.017 0.092,-0.327 0.029,-0.676 -0.169,-0.95 -0.199,-0.275 -0.511,-0.445 -0.849,-0.462 -0.893,-0.042 -1.786,0.147 -2.585,0.55 -0.071,0.035 -0.153,0.042 -0.228,0.018 -1.298,-0.416 -2.062,-1.971 -1.739,-2.004 2.238,-0.243 2.2,-0.632 3.098,-1.203 1.064,-0.674 0.548,-2.754 2.166,-2.929 0.008,-0.001 0.018,-0.002 0.026,-0.002 0.201,-0.018 0.369,-1.656 0.406,-1.861 0.027,-0.153 -0.037,-0.307 -0.166,-0.394 l -10e-4,0 c -0.484,-0.321 -0.806,-0.833 -0.883,-1.408 -0.146,-1.087 -0.034,-2.244 -0.765,-3.176 -0.309,-0.395 -1.014,-1.119 -1.841,-0.804 -0.886,0.337 -1.836,0.537 -2.783,0.581 -3.911,0.185 -6.201,1.015 -7.35,1.597 -0.842,0.429 -1.871,0.225 -2.488,-0.493 10e-4,0 0,0 0,0 -0.275,-0.012 -0.606,-0.026 -0.925,-0.043 -0.577,-0.033 -0.984,-0.578 -0.848,-1.139 0.306,-1.271 0.309,-2.561 -1.179,-6.365 -0.057,-0.147 -0.137,-0.348 -0.212,-0.487 -0.482,-0.899 -2.221,-2.658 -1.798,-3.125 0.047,-0.052 0.114,-0.083 0.184,-0.083 0.361,-0.008 0.683,-0.236 0.812,-0.574 0.111,-0.288 0.131,-0.603 0.056,-0.902 -0.122,-0.495 -0.663,-2.223 -0.447,-2.651 0.124,-0.239 0.34,-0.418 0.598,-0.492 0.379,-0.112 0.634,-0.411 0.96,-0.61 0.243,-0.142 1.034,0.202 1.507,0.406 0.35,0.148 0.564,0.244 1.338,-0.645 0.717,-0.819 0.158,-2.715 1.671,-2.747 0.412,-0.002 0.647,0.397 0.749,0.636 0.11,0.265 0.11,0.265 3.027,0.901 1.292,0.283 2.546,-0.533 3.841,-0.143 0.994,0.305 1.044,1.616 2.056,1.902 0.672,0.192 1.388,-0.181 2.048,0.16 0.356,0.194 0.03,1.28 0.421,1.626 0.001,0 0.003,10e-4 0.003,0.002 0.602,0.518 0.84,1.344 0.603,2.102 -0.112,0.362 -0.089,0.474 -0.033,0.732 0.064,0.314 1.019,0.859 1.566,2.117 0.047,0.107 0.1,0.205 0.172,0.271 1.785,1.632 4.205,2.016 6.229,3.172 1.778,1.02 0.538,3.763 2.637,4.597 1.942,0.773 3.385,-1.923 5.379,-0.781 2.116,1.207 4.752,2.712 5.306,2.738 0.577,0.027 1.097,-0.117 1.535,-0.317 0.668,-0.307 1.234,-0.804 1.623,-1.428 1.92,-3.086 5.579,-4.398 7.812,-7.163 C -2.638,9.022 -0.936,8.008 -0.289,7.4 0.762,6.417 0.16,7.695 1.073,6.117 1.077,6.11 1.082,6.102 1.086,6.095 1.532,5.404 2.318,4.185 1.575,3.871 1.054,3.655 1.058,3.497 1.065,3.317 1.076,2.917 0.74,2.547 0.982,2.133 1.052,2.017 1.316,1.656 1.877,1.928 2.542,2.271 2.296,2.392 2.561,2.906 3.214,4.213 3.194,4.29 3.178,4.287 3.402,4.448 3.822,4.317 3.893,4.699 4.065,5.612 3.426,5.917 3.005,6.116 2.737,6.248 2.233,6.486 2.535,7.264 2.543,7.284 2.553,7.305 2.561,7.324 2.563,7.331 2.567,7.336 2.569,7.344 2.888,8.029 3.689,8.337 4.386,8.043 4.893,7.826 5.285,7.721 5.473,7.196 5.507,7.101 5.527,7.01 5.523,6.939 5.513,6.709 5.507,6.493 5.606,6.402 5.749,6.274 6.229,6.381 6.36,6.626 6.439,6.769 6.534,7.239 6.529,7.386 l 0,0.008 C 6.529,7.4 6.527,7.406 6.525,7.412 6.523,7.435 6.513,7.457 6.502,7.476 5.248,9.438 2.916,9.589 1.113,10.626 c -0.203,0.117 -0.326,0.319 -0.35,0.537 -0.047,0.449 -0.43,0.789 -0.88,0.786 -1.106,-0.011 -2.146,0.529 -2.774,1.44 l -3.782,5.504 c -0.159,0.229 -0.308,0.47 -0.445,0.716 -0.247,0.449 -0.033,1 0.427,1.176 0.029,0.012 0.059,0.021 0.09,0.031 0.732,0.219 1.518,-0.068 1.937,-0.707 0.209,-0.318 0.417,-0.677 0.798,-0.653 0.46,0.029 0.913,-0.103 1.284,-0.374 L 3.92,14.34 c 0.003,-0.002 0.006,-0.004 0.01,-0.006 0,0 0.552,-0.117 1.383,-0.671 0.179,-0.12 0.387,-0.175 0.594,-0.167 0.325,0.013 0.645,-0.093 0.9,-0.298 C 7.794,12.402 8.429,11.254 8.578,9.995 8.644,9.433 8.688,8.92 8.714,8.556 l 0,-0.003 C 8.748,8.084 8.991,7.656 9.374,7.384 9.549,7.259 9.771,7.091 9.898,6.96 c 0.16,-0.168 0.188,-0.217 0.486,-0.722 0.12,-0.21 0.878,-0.885 0.948,-0.944 0.004,-0.003 0.006,-0.005 0.01,-0.008 0.032,-0.027 0.117,-0.081 0.254,-0.084 l 0.019,0 c 0.234,-0.004 0.455,0.093 0.683,0.079 0.703,-0.041 1.758,-0.933 2.566,-0.531 0.074,0.036 0.919,0.529 0.919,0.529 l 0.014,0.01 c 1.966,0.905 -0.461,1.829 -0.541,2.727 -0.028,0.325 0.093,0.561 0.307,0.709 0.205,0.138 0.463,0.171 0.728,0.046 0.15,-0.066 0.323,-0.049 0.456,0.046 0.001,0 0.002,10e-4 0.002,10e-4 0.16,0.113 0.271,0.282 0.31,0.474 0.214,1.032 1.272,1.333 2.314,1.333 0.87,0 1.731,-0.222 2.489,-0.644 0.311,-0.172 0.662,-0.254 1.024,-0.233 l 0.003,0 c 0.677,0.039 1.321,0.273 1.866,0.673 C 25.012,10.609 24.43,9.915 23.146,9.427 23.136,9.424 23.125,9.42 23.116,9.415 22.58,9.196 22.284,8.624 22.413,8.06 22.673,6.928 25.032,5.809 23.489,4.354 23.471,4.335 23.452,4.318 23.433,4.301 c 0.002,0 0.004,-0.001 0.005,-0.002 0.861,-0.35 1.578,-0.966 2.052,-1.762 1.566,-2.622 6.802,-3.444 7.264,-2.327 0.002,0.004 0.004,0.008 0.005,0.013 0.23,0.599 0.902,0.9 1.503,0.672 1.194,-0.453 2.263,-1.345 3.635,-1.206 0.78,0.081 1.347,0.367 1.811,0.765 1.288,1.108 2.897,1.78 4.591,1.913 l 0.002,0 c 0.014,10e-4 0.028,-0.005 0.038,-0.015 0.012,-0.012 0.015,-0.026 0.014,-0.04 -0.853,-5.002 4.714,-10.554 -0.777,-15.091 -0.433,-0.359 -1.209,-0.54 -1.763,-0.638 -4.954,-0.876 -9.969,-0.092 -14.939,-0.428 -2.874,-0.195 -3.287,0.835 -4.186,0.851 l -0.014,0 -0.026,0 c -0.967,-0.02 -1.153,-0.021 -2.598,0.308 -0.899,0.205 -3.301,3.651 -6.571,0.988 -0.939,-0.766 -1.499,-1.758 -1.47,-2.328 0.407,-8.18 -9.665,-2.164 -10.411,-1.266 -1.147,1.373 -2.68,2.376 -4.4,2.873 -1.892,0.548 -4.176,1.292 -5.615,2.044 -1.094,0.57 -2.415,0.917 -2.973,0.946 -0.203,0.033 -0.301,1.027 0.315,1.648 1.627,1.64 2.135,2.301 1.618,3.171 -1.359,2.287 -0.464,2.09 -1.663,3.639 -0.005,0.005 -0.008,0.01 -0.012,0.015 -0.424,0.545 -1.09,0.844 -1.777,0.801 -20.346,-1.297 -24.725,-1.887 -28.739,-3.812 -0.356,-0.166 -1.081,-0.513 -2.215,-0.014 -0.868,0.383 -1.851,0.422 -2.746,0.107 l -10e-4,0 c -1.317,0.87 -3.041,0.784 -4.264,-0.21 l -6.628,-5.386 c -0.669,-0.543 -1.255,-1.2 -1.719,-1.928 -1.197,-1.889 -1.119,-3.305 -1.087,-3.985 0.112,-2.122 -5.957,-6.032 -9.164,-5.669 -0.005,0.001 -0.008,0.001 -0.015,0.001 l 0,0.004 c -1.471,-0.592 -2.736,-1.107 -10.108,-11.387 -4.051,-5.643 -4.051,-5.643 -3.233,-7.208 0.439,-0.841 1.334,-2.55 0.66,-7.236 -0.042,-0.303 -0.103,-0.611 -0.177,-0.912 -0.035,-0.14 -0.076,-0.286 -0.118,-0.425 l -2.836,-9.431 c -0.794,-2.634 -0.274,-5.5 1.4,-7.687 0.001,0 0.001,0 0.002,0 0.008,-0.014 0.016,-0.025 0.022,-0.04 l 0.619,-1.165 c 0.102,-0.193 0.201,-0.396 0.29,-0.597 0.607,-1.377 1.454,-9.078 3.731,-12.577 0.357,-0.548 0.773,-1.057 1.239,-1.515 l 7.179,-7.056 c 1.26,-1.24 3.764,-2.086 5.502,-2.42 5.122,-0.983 10.558,-1.021 15.595,-2.922 0.244,-0.093 0.575,-0.22 0.836,-0.232 5.835,-0.393 10.617,4.46 16.268,4.857 1.328,0.09 4.031,-0.773 4.718,-4.729 0.509,-2.945 5.056,-2.014 7.198,-1.387 0.971,0.283 2.012,0.233 2.951,-0.15 0.007,-0.004 0.013,-0.01 0.013,-0.019 0.001,-0.007 0.001,-0.015 0.003,-0.023 0.065,-0.64 0.631,-1.108 1.272,-1.054 0.019,10e-4 0.038,0.003 0.056,0.005 0.368,0.037 0.727,-0.133 0.93,-0.442 1.169,-1.767 0.941,-2.908 0.762,-3.762 -0.001,-10e-4 -0.001,-0.003 -0.001,-0.007 -0.003,-0.009 -0.005,-0.019 -0.008,-0.028 l -0.059,-0.288 c -0.002,-0.012 -0.005,-0.023 -0.006,-0.034 -0.048,-0.213 -0.085,-0.432 -0.115,-0.649 -0.591,-4.335 -0.232,-6.35 -2.238,-7.957 -0.217,-0.174 -0.384,-0.394 -0.497,-0.65 2.177,-4.466 6.923,-6.732 6.923,-6.732 0.695,-0.74 4.789,-7.796 5.225,-10.909 0.664,-4.739 0.664,-3.839 0.786,-4.045 2.092,-3.421 0.263,-5.033 -1.015,-5.686 -0.389,-0.202 -0.587,-0.354 -0.694,-0.564 -0.19,-0.376 -0.414,-0.75 -0.654,-1.095 -0.208,-0.297 -2.827,-7.369 -2.814,-8.835 l 0,-0.007 c 0.01,-1.344 2.235,-2.638 3.018,-3.73 l 5.033,-7.028 c 0.086,-0.121 0.177,-0.243 0.27,-0.36 1.742,-2.195 -0.939,-5.3 0.62,-7.505 0.506,-0.719 1.749,-3.601 2.402,-4.055 1.02,-0.702 5.291,-6.875 4.023,-7.923 -0.132,-0.111 -0.117,-0.413 -0.059,-0.581 0.383,-1.1 5.557,-2.857 7.469,-2.039 2.84,1.214 8.797,2.162 11.224,2.144 3.358,-0.026 19.511,11.556 18.237,15.548 -0.017,0.052 -0.021,0.11 -0.013,0.162 0,0.002 10e-4,0.002 0.003,0.004 1.888,2.229 7.367,4.972 7.218,5.254 -0.002,0.005 -0.003,0.009 -0.006,0.013 0.709,1.576 0.953,2.885 0.966,3.924 0.033,2.821 1.389,5.462 3.658,7.136 1.935,1.433 4.755,3.475 8.891,6.469 2.582,1.872 3.882,3.197 3.661,11.259 -0.204,7.394 -1.521,13.165 -1.963,14.413 -0.619,1.748 -0.446,2.073 0.252,3.373 2.077,3.833 4.889,7.213 6.874,11.105 3.157,6.184 7.034,9.82 9.16,11.789 0.091,0.088 0.177,0.174 0.259,0.271 3.844,4.507 6.056,10.598 7.454,16.311 0.296,1.212 0.766,2.364 1.121,3.553 0.267,0.9 0.656,1.672 1.132,6.334 0.084,0.796 -0.358,1.511 -0.319,2.301 0.177,3.07 -0.878,0.364 -1.777,-0.069 -2.296,-1.09 -1.054,-0.707 -2.053,-1.356 -0.485,-0.304 -4.187,-1.614 -4.636,-2.028 -0.522,-0.484 -1.013,-1.024 -1.771,-1.123 -4.561,-0.571 -5.368,-0.671 -6.173,0.073 -0.763,0.702 -1.247,1.584 -1.45,2.602 -0.211,1.066 -0.752,2.057 -1.573,2.824 -4.366,4.073 -12.921,6.719 -14.948,17.772 -0.308,1.661 -12.47,19.223 -14.964,22.775 -0.28,0.396 -0.37,0.897 -0.248,1.366 0.002,0.006 0.002,0.012 0.004,0.018 0.475,-1.208 2.362,-3.367 3.513,-4.556 0.33,-0.342 0.794,-0.498 1.171,-0.212 0.45,0.34 0.151,0.846 0.244,2.456 0.026,0.46 0.691,0.493 0.767,0.042 0.168,-1.005 0.654,-1.921 1.386,-2.629 1.616,-1.557 3.582,-4.446 4.878,-6.479 0.794,-1.247 1.87,-2.262 3.158,-2.99 1.845,-1.041 2.398,-2.746 3.717,-6.791 1.562,-4.79 7.167,-5.934 9.239,-10.259 1.755,-3.649 2.223,-7.807 4.453,-11.271 0.014,-0.024 0.03,-0.05 0.048,-0.071 0.284,-0.385 0.77,-0.564 1.237,-0.455 3.39,0.796 7.325,5.041 8.3,5.798 2.044,1.594 3.531,2.794 4.621,3.712 1.486,1.25 2.518,2.936 2.963,4.826 0.375,1.593 2.798,2.988 3.527,2.993 1.895,0.014 1.044,2.476 1.836,3.578 0.842,1.163 0.906,2.464 1.875,3.496 0.312,0.331 0.676,0.6 1.083,0.801 0.042,0.02 0.068,0.059 0.079,0.105 0.238,1.242 -0.541,2.376 -0.529,3.595 0.003,0.314 0.295,0.558 0.609,0.495 0.011,-0.002 0.021,0 0.031,0.007 0.009,0.006 0.015,0.016 0.017,0.027 0.673,3.836 1.967,7.075 -1.425,8.667 -1.338,0.636 -2.958,-0.365 -4.214,0.717 -0.008,0.007 -0.015,0.013 -0.021,0.019 -0.689,0.593 -1.613,0.833 -2.502,0.65 -0.889,-0.183 -1.644,-0.769 -2.04,-1.586 -0.005,-0.007 -0.009,-0.014 -0.011,-0.02 -0.348,-0.709 -1.022,-1.197 -1.804,-1.309 -1.262,-0.178 -1.123,-0.404 -2.093,-1.136 0,-0.001 -0.001,-0.001 -0.003,0 -2.057,1.079 -3.331,1.174 -10.595,12.001 -2.168,3.226 0.781,4.842 1.8,3.661 0.002,-0.002 0.005,0.001 0.005,0.001 10e-4,10e-4 0.003,0.002 0.006,0.004 0.905,-0.98 4.583,-4.876 7.569,-6.542 1.013,-0.565 4.08,-1.341 4.639,-0.314 2.075,3.794 3.568,1.044 3.856,0.433 1.525,-3.244 5.779,-0.415 6.725,-0.462 2.071,-0.106 1.884,0.32 7.816,3.675 2.35,1.332 5.176,1.538 7.693,0.561 2.519,-0.983 4.466,-3.041 5.306,-5.607 M -90.362,72.317 c -0.246,0.412 -0.745,0.597 -1.202,0.448 -0.32,-0.106 -0.928,-0.311 -1.11,-0.03 -0.062,0.1 -0.066,0.226 -0.005,0.328 0.134,0.225 0.496,0.691 0.527,0.904 0.024,0.179 0.116,0.341 0.253,0.457 0.055,0.047 0.12,0.077 0.176,0.119 -14.462,-7.629 -27.506,-17.578 -38.633,-29.36 0.045,0.011 0.093,0.013 0.14,0 1.759,-0.49 1.628,-0.107 3.132,1.711 0.874,1.056 2.458,1.45 3.337,1.758 0.879,0.308 2.339,0.45 2.341,0.45 0.846,0.158 3.276,-0.392 3.982,0.179 0.591,0.479 -0.166,0.644 0.181,1.167 0.333,0.497 0.617,1.029 0.844,1.582 0.193,0.469 0.774,0.61 1.204,0.874 0.732,0.45 0.025,0.448 -0.116,0.688 -0.109,0.185 0.011,0.858 0.282,0.904 0.003,0 0.008,-0.001 0.012,-0.005 0.385,-0.354 0.922,-0.499 1.434,-0.382 0.445,0.102 0.603,0.259 0.731,0.531 0.089,0.188 0.253,0.33 0.454,0.387 0.002,10e-4 0.005,0.002 0.007,0.003 1.203,2.89 -4.145,1.254 -4.147,1.258 -0.215,0.428 2.823,1.397 3.297,1.533 0.003,-10e-4 0.005,-0.003 0.007,-0.005 0.004,-0.003 0.008,-0.006 0.013,-0.008 0.283,-0.075 0.54,-0.034 0.781,0.062 1.445,0.568 3.077,-0.143 3.646,-1.587 l 0,-0.002 c 0.155,-0.388 0.482,-0.681 0.886,-0.788 0.474,-0.127 0.948,-0.264 1.451,-0.075 2.595,0.967 3.35,0.137 5.515,1.099 0.005,10e-4 0.013,0.005 0.019,0.008 2.822,1.259 2.947,7.52 6.784,10.958 0.376,0.337 0.785,0.646 1.212,0.916 0.702,0.443 1.16,1.127 1.65,1.778 0.233,0.311 0.495,0.616 0.767,0.894 0.325,0.333 0.387,0.844 0.148,1.246 m -28.476,-182.83 c -0.438,3.51 -11.627,16.323 -14.796,18.705 -2.502,1.882 -4.308,1.896 -4.308,1.899 0.144,1.571 -0.463,3.117 -1.636,4.17 -0.443,0.398 -0.772,0.924 -1.1,1.453 -0.439,0.713 -1.216,1.146 -2.051,1.148 -0.838,0 -1.616,-0.432 -2.054,-1.144 0,0 -0.002,-0.001 -0.002,-0.002 0.751,2.507 0.786,2.623 -1.198,5.061 -1.065,1.306 -1.204,1.181 0.081,3.589 0.185,3.285 -6.246,13.77 -11.944,20.193 -0.185,0.209 -0.461,0.32 -0.798,0.257 -0.582,0.537 -3.401,10.904 -4.026,13.337 -0.029,0.117 -0.003,0.24 0.074,0.333 0.497,0.597 0.696,1.385 0.545,2.145 -0.125,0.63 -0.371,1.362 -0.409,2.001 -0.072,1.182 -1.182,2.151 -1.38,2.01 -0.309,-0.218 -0.638,-0.241 -0.928,-0.123 -0.296,0.12 -0.517,0.378 -0.579,0.747 -0.24,1.279 -1.355,2.203 -2.657,2.201 -0.519,0 -0.621,0.11 -0.706,0.487 -1.312,-7.936 -2.008,-16.08 -2.008,-24.389 0,-39.474 15.417,-75.307 40.558,-101.829 -1.137,1.48 -2.363,4.108 -2.374,4.504 -0.03,1.029 -0.239,2.058 -0.616,3.016 -0.319,0.815 -0.691,1.615 -1.06,2.415 -1.244,2.712 4.345,3.165 5.897,5.711 10e-4,0.001 10e-4,0.002 10e-4,0.004 0.118,0.236 1.056,0.357 2.181,-0.449 0.898,-0.642 2.199,0.843 2.079,1.361 -0.372,1.663 -0.375,1.934 -0.17,3.444 0.348,2.582 -0.355,8.98 -0.658,9.842 -1.024,2.922 -1.241,4.401 -1.254,5.11 -0.011,0.518 1.381,0.913 1.633,1.779 0.506,1.75 3.492,4.996 4.416,6.559 0.803,1.357 1.443,2.891 1.247,4.455 m 79.14,151.808 c 0.36,0.197 0.044,0.578 0.138,0.855 0.248,0.741 0.415,0.76 0.709,0.801 0.285,0.042 0.55,0.077 0.648,0.23 0.466,0.687 -1.178,2.662 -2.206,2.398 -1.068,-0.275 -1.927,-1.832 -2.284,-1.81 -0.453,0.024 -0.66,0.038 -0.963,-0.2 -0.235,-0.18 -0.264,-0.48 -0.437,-0.695 -0.203,-0.263 -0.474,-0.468 -0.682,-0.728 -0.174,-0.214 -0.238,-0.402 0.006,-0.623 0.181,-0.159 0.28,-0.248 -0.251,-0.934 -0.438,-0.565 -1.163,-0.865 -1.469,-1.561 -0.108,-0.252 -0.093,-0.753 -0.057,-0.953 0.139,-0.724 1.264,-0.433 1.941,-0.14 0.615,0.266 1.188,0.635 1.84,0.811 0.005,0.002 0.015,0.003 0.018,0.005 0.899,0.246 1.684,0.003 1.954,0.343 0.264,0.337 0.716,0.948 0.929,1.439 0.101,0.243 -0.158,0.587 0.166,0.762 m 10.643,-4.545 c -0.004,0.037 0.019,0.072 0.056,0.083 0.039,0.012 0.082,0.004 0.116,-0.023 0.025,-0.019 0.051,-0.039 0.072,-0.054 0.131,-0.088 0.211,-0.1 0.26,-0.066 0.289,0.208 0.597,0.404 0.909,0.577 0.167,0.093 0.267,0.281 0.36,0.645 0.026,0.113 0.135,0.69 -0.598,1.099 -0.004,0.002 -0.009,0.005 -0.014,0.008 -0.06,0.034 -1.422,0.734 -1.807,0.523 -0.257,-0.136 -0.257,-0.136 -0.729,0.108 -0.017,0.07 0.009,0.142 0.064,0.186 0.538,0.415 0.537,0.421 0.527,0.539 -0.02,0.258 -0.156,0.442 -0.31,0.614 -0.136,0.149 -0.15,0.37 -0.035,0.534 0.002,0.003 0.003,0.006 0.005,0.008 0.104,0.141 -0.436,1.297 -0.442,1.304 -0.036,0.04 -0.054,0.061 -0.129,0.056 -0.226,-0.015 -0.463,-0.021 -0.69,-0.02 -0.028,0 -0.064,-0.005 -0.119,-0.014 -0.005,-10e-4 -0.012,0.002 -0.014,0.007 -0.013,0.023 -0.015,0.049 -0.009,0.073 0.072,0.284 -0.206,0.466 -0.231,0.726 -0.026,0.264 0.045,0.523 0.072,0.782 0.022,0.232 -0.005,0.498 -0.079,0.753 -0.273,0.936 -0.229,1.924 0.103,2.818 0.139,0.372 0.331,0.729 0.563,1.05 0.536,0.745 -1.871,0.649 -2.327,0.62 -0.035,-0.002 -0.069,0.015 -0.088,0.045 -0.018,0.031 -0.017,0.069 0.003,0.101 0.116,0.175 0.132,0.406 0.296,0.558 0.22,0.21 0.519,0.276 0.77,0.431 0.556,0.346 0.091,0.561 -0.112,0.614 -0.483,0.124 -0.991,0.189 -1.491,0.19 -0.189,0 -0.379,-0.026 -0.572,-0.099 -0.125,-0.047 -0.272,-0.204 -0.42,-0.41 -0.302,-0.421 -0.657,-0.795 -1.064,-1.117 -0.023,-0.018 -0.044,-0.035 -0.065,-0.051 -0.113,-0.086 -0.261,-0.102 -0.388,-0.05 -0.074,0.032 -0.158,0.032 -0.232,0.002 -0.016,-0.007 -0.03,-0.014 -0.044,-0.022 -0.139,-0.072 -0.242,-0.18 -0.316,-0.301 -0.094,-0.15 -0.074,-0.344 0.046,-0.473 0.121,-0.129 0.314,-0.163 0.469,-0.08 10e-4,-0.002 0.002,-0.005 0.003,-0.008 0.021,-0.049 0.02,-0.105 -10e-4,-0.154 -0.091,-0.198 -0.118,-0.415 -0.199,-0.616 -0.01,-0.022 -0.028,-0.038 -0.053,-0.042 -0.036,-0.007 -0.073,0.01 -0.094,0.041 -0.101,0.158 -0.15,0.159 -0.221,0.145 -0.006,-0.002 -0.015,-0.003 -0.021,-0.004 -0.287,-0.06 -0.488,-0.731 -0.476,-0.925 0.004,-0.066 0.024,-0.113 0.055,-0.147 0.369,-0.405 0.402,-1.012 0.076,-1.455 l -0.001,0 c -0.034,-0.046 -0.064,-0.094 -0.089,-0.142 -0.048,-0.095 -0.017,-0.212 0.072,-0.271 0.091,-0.059 0.208,-0.042 0.278,0.04 0.085,0.098 0.193,0.226 0.332,0.393 0.132,0.158 0.176,0.213 0.371,0.297 0.152,0.066 0.307,0.126 0.465,0.178 0.059,0.019 0.126,0.008 0.174,-0.03 0.05,-0.037 0.08,-0.097 0.078,-0.16 -0.016,-0.36 0.106,-0.753 -0.257,-1.036 -0.207,-0.163 -0.37,-0.291 -0.495,-0.396 -0.121,-0.102 -0.155,-0.276 -0.08,-0.417 0.076,-0.141 0.239,-0.209 0.392,-0.165 l 0.019,-0.012 c 0.013,-0.011 0.024,-0.025 0.027,-0.042 0.102,-0.428 0.115,-0.428 0.679,-0.086 0.018,0.011 0.04,0.013 0.059,0.008 0.01,-0.002 0.018,-0.009 0.023,-0.018 0.077,-0.15 0.201,-0.269 0.352,-0.342 0.211,-0.103 0.367,-0.297 0.418,-0.534 0.003,-0.014 0.006,-0.028 0.01,-0.044 0.004,-0.014 0.008,-0.027 0.012,-0.04 0.193,-0.589 0.037,-1.233 -0.4,-1.67 -0.439,-0.436 -1.085,-0.588 -1.672,-0.392 l -10e-4,0 c -0.098,0.032 -0.206,-0.004 -0.265,-0.089 -0.059,-0.086 -0.054,-0.199 0.012,-0.279 0.057,-0.072 0.126,-0.138 0.125,-0.238 -0.011,-0.366 -0.47,-0.228 -0.613,-0.472 -0.002,-0.003 -0.004,-0.004 -0.005,-0.006 -0.009,-0.018 -0.015,-0.038 -0.018,-0.059 -0.005,-0.046 0.014,-0.093 0.049,-0.126 0.035,-0.032 0.084,-0.044 0.13,-0.034 0.211,0.047 0.382,0.224 0.605,0.243 0.42,0.028 0.103,-1.025 -0.035,-1.18 -0.154,-0.171 -1.216,-0.548 -1.553,-0.596 -0.216,-0.033 -0.36,-0.053 -0.431,-0.13 -0.067,-0.076 -0.111,-0.518 0.186,-0.661 0.455,-0.217 0.878,0.18 1.329,0.063 l 10e-4,0 c 0.426,-0.112 0.813,-0.341 1.114,-0.66 0.025,-0.028 0.057,-0.046 0.09,-0.058 0.146,-0.058 0.311,-0.055 0.455,0.007 0.035,0.015 0.07,0.035 0.099,0.062 0.12,0.105 0.245,0.14 0.373,0.145 0.096,0.004 0.185,-0.057 0.216,-0.15 0.032,-0.093 0,-0.195 -0.081,-0.252 -0.328,-0.236 -0.658,-0.475 -1.117,-0.422 -0.244,0.028 -0.492,0.03 -0.736,0.003 -0.753,-0.08 -1.463,-0.414 -2.008,-0.96 -0.181,-0.182 -0.375,-0.376 -0.548,-0.555 -0.093,-0.096 -0.102,-0.246 -0.018,-0.351 0.084,-0.105 0.231,-0.131 0.346,-0.061 0.079,0.047 0.166,0.102 0.262,0.16 0.322,0.199 0.913,0.44 1.235,-0.18 0.005,-0.001 0.01,-0.002 0.014,-0.003 0.048,-0.015 0.099,-0.005 0.14,0.025 0.434,0.326 0.654,0.934 1.291,0.989 0.452,0.035 0.789,-0.407 1.253,-0.31 0.52,0.109 0.952,0.507 1.516,0.477 0.208,-0.012 0.781,-0.165 0.837,-0.197 0.157,-0.097 0.157,-0.097 1.001,-0.111 0.356,-0.007 0.614,-0.295 0.951,-0.348 0.41,-0.064 0.785,0.18 1.187,0.145 l 0.005,0 0.003,0 c 0.011,0 1.219,0.23 1.196,0.73 0,0.009 -0.006,0.019 -0.015,0.024 -0.005,0.002 -0.01,0.006 -0.015,0.009 -0.424,0.25 -0.706,0.689 -0.764,1.178 M -77.21,68.336 c 0.091,-0.106 1.258,-0.174 1.363,-0.381 0.157,-0.309 -0.45,-0.576 -0.318,-0.828 0.036,-0.07 0.102,-0.119 0.179,-0.134 0.187,-0.039 -0.587,-0.801 -0.695,-0.964 -0.178,-0.27 0.056,-0.976 0.459,-0.959 0.41,0.016 0.672,0.267 1.059,0.713 0,0 1.05,0.586 1.758,1.173 0.687,0.572 2.087,0.735 2.604,1.712 0.282,0.532 0.794,0.875 1.216,0.965 0.182,0.039 0.365,-0.063 0.429,-0.239 0.056,-0.244 3.283,1.185 3.169,1.748 -0.1,0.524 0.198,0.576 0.537,0.431 0.235,-0.098 0.43,-0.027 0.58,0.1 0.97,0.809 2.439,1.79 3.663,1.476 0.296,-0.075 0.608,-0.033 0.872,0.117 1.223,0.699 1.361,0.371 1.068,0.257 -0.319,-0.123 -1.212,-0.447 -1.033,-0.736 0.045,-0.073 0.133,-0.103 0.215,-0.071 0.524,0.207 1.072,0.316 1.635,0.325 0.782,0.013 1.937,0.142 2.968,0.688 0.043,0.024 0.09,0.047 0.134,0.071 0.009,0.004 0.019,0.009 0.027,0.013 2.444,1.24 3.452,2.057 3.967,1.709 0.159,-0.108 0.247,-0.293 0.231,-0.485 0.002,-0.001 0.006,-0.003 0.009,-0.006 0.401,-0.282 0.827,-0.01 1.308,0.114 0,0 0.39,-0.4 1.863,-0.381 -0.349,-0.898 15.067,2.45 24.826,10.536 2.645,2.191 5.583,4.219 8.518,6.039 -2.688,0.146 -5.394,0.225 -8.119,0.225 -10.575,0 -20.887,-1.115 -30.832,-3.219 0.711,-0.101 0.652,-0.961 0.198,-1.118 -1.198,-0.414 -2.557,-0.427 -3.565,-1.298 -0.089,-0.076 -0.112,-0.203 -0.057,-0.305 0.057,-0.102 0.175,-0.15 0.287,-0.118 0.206,0.062 0.575,0.197 1.453,0.524 0.154,0.058 0.339,-0.049 0.317,-0.211 -0.011,-0.062 -0.05,-0.115 -0.108,-0.14 -0.432,-0.188 -0.916,-0.271 -1.332,-0.491 -0.082,-0.043 -0.129,-0.136 -0.112,-0.228 0.041,-0.221 -0.158,-0.652 -0.026,-0.777 10e-4,-0.001 0.002,-0.002 0.004,-0.004 -0.034,-0.039 -4.282,-2.933 -5.888,-3.035 -0.002,0 -0.005,-0.001 -0.008,-0.001 -1.925,-0.087 -3.705,-0.86 -4.235,-1.297 -0.533,-0.442 -1.114,-0.818 -1.735,-1.127 -1.295,-0.645 -2.454,-1.74 -3.21,-2.563 -0.389,-0.42 0.29,-0.572 0.823,-0.781 0,0 0.365,-0.116 -0.201,-0.197 -2.128,-0.291 -3.955,-2.693 -4.508,-3.497 -0.105,-0.153 -0.105,-0.354 -0.002,-0.507 0.003,-0.005 0.008,-0.009 0.011,-0.015 -0.986,-0.976 -1.08,-1.07 -1.806,-2.544 -0.043,-0.093 -0.028,-0.203 0.04,-0.279 M 162.282,-56.435 c 0,-102.174 -82.826,-185 -184.999,-185 -102.174,0 -185.001,82.826 -185.001,185 0,102.173 82.827,185 185.001,185 102.173,0 184.999,-82.827 184.999,-185 M 51.034,16.358 c 0.796,-2.701 -2.47,-3.211 -3.628,-2.628 -0.667,0.336 -0.969,-0.414 -1.448,-0.641 -0.02,-0.011 -0.045,-0.021 -0.067,-0.032 -0.341,-0.007 -0.695,0.073 -0.93,0.136 -0.576,0.161 -2.993,0.182 -3.894,0.558 -0.004,0.003 -0.008,0.005 -0.014,0.007 -0.198,0.098 -3.259,1.25 -3.483,1.181 C 36.595,14.64 35.444,15.345 34.542,14.638 34.007,14.225 33.362,14 32.835,13.582 32.1,13.002 32.069,12.979 32.059,12.81 c -0.002,-0.017 -0.003,-0.034 -0.005,-0.05 -0.021,-0.195 -0.042,-0.362 -0.278,-0.462 -0.285,-0.122 -0.739,-0.19 -0.964,-0.19 -0.659,-0.003 -1.316,-0.116 -1.974,-0.04 -0.594,0.067 -1.168,-0.336 -1.765,-0.072 l -0.004,0 c -1.094,0.462 -2.028,1.213 -2.718,2.183 l -0.69,0.965 c 0,10e-4 -0.001,10e-4 -0.001,0.002 -0.05,0.071 -0.053,0.163 -0.011,0.238 0.058,0.102 0.178,0.18 0.419,-0.051 0,-10e-4 0.002,-0.002 0.004,-0.004 0.036,-0.037 0.094,-0.047 0.138,-0.023 0.047,0.026 0.069,0.078 0.059,0.128 -0.137,0.571 -0.375,1.421 -0.18,1.983 0.002,0.005 0.004,0.011 0.005,0.016 0.118,0.333 0.59,0.256 0.705,0.595 0.131,0.394 -0.09,0.757 -0.116,1.136 -0.016,0.177 0.174,1.843 0.174,1.849 l 0.033,0 c 0.318,0.151 0.458,0.389 0.525,0.662 0.18,0.716 0.498,1.379 0.944,1.967 0.123,0.161 0.255,0.532 0.582,1.454 0.123,0.353 0.153,0.438 0.687,0.587 0.65,0.181 1.336,0.234 2.006,0.152 0.357,-0.044 0.788,-0.119 1.299,-0.243 0.046,-0.012 0.084,-0.043 0.105,-0.085 0,0 0.001,-0.001 0.001,-0.002 0.027,-0.056 0.008,-0.126 -0.05,-0.157 -0.147,-0.082 -0.229,-0.25 -0.199,-0.421 0.034,-0.189 0.197,-0.327 0.391,-0.33 0.24,-0.003 0.459,0.096 0.649,0.186 0.324,0.148 0.443,0.201 0.71,0.02 0.208,-0.141 0.319,-0.388 0.286,-0.639 -0.069,-0.55 -0.813,-0.54 -0.805,-0.981 0.005,-0.182 0.123,-0.34 0.294,-0.396 0.848,-0.255 1.448,-0.868 1.71,-1.62 0.01,-0.029 0.023,-0.058 0.038,-0.087 0.037,-0.066 0.187,-0.285 0.636,-0.233 0.173,0.023 1.838,1.6 1.9,1.726 0,0.001 0.001,0.001 0.001,0.002 0.126,0.256 -0.237,0.324 -0.488,0.459 -0.592,0.315 -0.981,0.913 -1.029,1.582 -0.05,0.671 0.248,1.318 0.79,1.716 0.005,0.002 0.009,0.005 0.012,0.007 l 3.047,1.761 0.004,0.002 c 0.053,0.03 0.112,0.05 0.171,0.058 0.003,0 0.005,0.001 0.007,0.001 0.194,0.021 1.527,0.814 2.01,0.868 0.144,0.021 0.464,-0.332 0.368,-0.591 -0.061,-0.169 -0.21,-0.434 -0.56,-0.635 -0.416,-0.241 -1.435,-0.768 -1.38,-1.24 0.071,-0.593 0.766,-0.373 1.127,-0.601 0.274,-0.175 0.18,-0.299 0.106,-0.55 -10e-4,-0.007 -0.003,-0.014 -0.005,-0.019 -0.199,-0.709 -0.517,-1.367 -0.944,-1.966 -0.025,-0.034 -0.038,-0.071 -0.032,-0.105 0.084,-0.454 0.084,-0.454 1.665,-1.085 0.703,-0.279 1.503,0.094 2.182,-0.322 1.541,-0.946 2.686,-2.45 4.436,-3.083 0.582,-0.21 2.515,-1.007 2.947,-2.474"
             style="fill:#ffffff;fill-opacity:1;fill-rule:nonzero;stroke:none"
             id="path3159" /></g></g></g></g></svg>