<?xml version="1.0" encoding="UTF-8" standalone="no"?>
<!-- Created with Inkscape (http://www.inkscape.org/) -->

<svg
   xmlns:dc="http://purl.org/dc/elements/1.1/"
   xmlns:cc="http://creativecommons.org/ns#"
   xmlns:rdf="http://www.w3.org/1999/02/22-rdf-syntax-ns#"
   xmlns:svg="http://www.w3.org/2000/svg"
   xmlns="http://www.w3.org/2000/svg"
   xmlns:sodipodi="http://sodipodi.sourceforge.net/DTD/sodipodi-0.dtd"
   xmlns:inkscape="http://www.inkscape.org/namespaces/inkscape"
   id="svg3263"
   version="1.1"
   inkscape:version="0.48.4 r9939"
   width="625"
   height="625"
   xml:space="preserve"
   sodipodi:docname="Wohnheime.pdf"><metadata
     id="metadata3269"><rdf:RDF><cc:Work
         rdf:about=""><dc:format>image/svg+xml</dc:format><dc:type
           rdf:resource="http://purl.org/dc/dcmitype/StillImage" /><dc:title></dc:title></cc:Work></rdf:RDF></metadata><defs
     id="defs3267"><clipPath
       clipPathUnits="userSpaceOnUse"
       id="clipPath3283"><path
         d="M 0,500 500,500 500,0 0,0 0,500 z"
         id="path3285" /></clipPath></defs><sodipodi:namedview
     pagecolor="#ffffff"
     bordercolor="#666666"
     borderopacity="1"
     objecttolerance="10"
     gridtolerance="10"
     guidetolerance="10"
     inkscape:pageopacity="0"
     inkscape:pageshadow="2"
     inkscape:window-width="640"
     inkscape:window-height="480"
     id="namedview3265"
     showgrid="false"
     inkscape:zoom="0.3776"
     inkscape:cx="312.5"
     inkscape:cy="312.5"
     inkscape:window-x="0"
     inkscape:window-y="0"
     inkscape:window-maximized="0"
     inkscape:current-layer="g3271" /><g
     id="g3271"
     inkscape:groupmode="layer"
     inkscape:label="Wohnheime"
     transform="matrix(1.25,0,0,-1.25,0,625)"><g
       id="g3279"><g
         id="g3281"
         clip-path="url(#clipPath3283)"><g
           id="g3287"
           transform="translate(404.1758,202.3203)"><path
             d="m 0,0 0,-57.487 30.352,0 0,85.947 -339.413,0 0,124.338 c 0,8.318 -6.668,15.126 -15.082,15.126 -8.321,0 -15.033,-6.808 -15.033,-15.126 l 0,-210.285 30.115,0 0,57.487 L 0,0 z"
             style="fill:#ffffff;fill-opacity:1;fill-rule:nonzero;stroke:none"
             id="path3289" /></g><g
           id="g3291"
           transform="translate(141.4463,294.5098)"><path
             d="M 0,0 C 15.08,0 27.276,12.195 27.276,27.324 27.276,42.356 15.08,54.551 0,54.551 -15.082,54.551 -27.28,42.356 -27.28,27.324 -27.28,12.198 -15.085,0 0,0"
             style="fill:#ffffff;fill-opacity:1;fill-rule:nonzero;stroke:none"
             id="path3293" /></g><g
           id="g3295"
           transform="translate(435,253.3774)"><path
             d="m 0,0 -0.094,37.539 c -0.093,11.913 -10.114,20.138 -21.745,21.555 l -214.277,21.372 c -0.426,0.092 -0.803,0.286 -1.179,0.286 -7.423,0 -13.425,-6.051 -13.425,-13.425 l 0,-40.471 -56.024,0 c -7.52,0 -13.521,-6.052 -13.521,-13.427 0,-7.471 6.006,-13.429 13.521,-13.429 L 0,0 z"
             style="fill:#ffffff;fill-opacity:1;fill-rule:nonzero;stroke:none"
             id="path3297" /></g></g></g></g></svg>