<?xml version="1.0" encoding="UTF-8" standalone="no"?>
<!-- Created with Inkscape (http://www.inkscape.org/) -->

<svg
   xmlns:dc="http://purl.org/dc/elements/1.1/"
   xmlns:cc="http://creativecommons.org/ns#"
   xmlns:rdf="http://www.w3.org/1999/02/22-rdf-syntax-ns#"
   xmlns:svg="http://www.w3.org/2000/svg"
   xmlns="http://www.w3.org/2000/svg"
   xmlns:sodipodi="http://sodipodi.sourceforge.net/DTD/sodipodi-0.dtd"
   xmlns:inkscape="http://www.inkscape.org/namespaces/inkscape"
   id="svg2985"
   version="1.1"
   inkscape:version="0.48.4 r9939"
   width="625"
   height="625"
   xml:space="preserve"
   sodipodi:docname="Fachbereiche.pdf"><metadata
     id="metadata2991"><rdf:RDF><cc:Work
         rdf:about=""><dc:format>image/svg+xml</dc:format><dc:type
           rdf:resource="http://purl.org/dc/dcmitype/StillImage" /><dc:title></dc:title></cc:Work></rdf:RDF></metadata><defs
     id="defs2989" /><sodipodi:namedview
     pagecolor="#ffffff"
     bordercolor="#666666"
     borderopacity="1"
     objecttolerance="10"
     gridtolerance="10"
     guidetolerance="10"
     inkscape:pageopacity="0"
     inkscape:pageshadow="2"
     inkscape:window-width="1280"
     inkscape:window-height="747"
     id="namedview2987"
     showgrid="false"
     inkscape:zoom="0.848"
     inkscape:cx="312.5"
     inkscape:cy="310.52671"
     inkscape:window-x="-8"
     inkscape:window-y="-8"
     inkscape:window-maximized="1"
     inkscape:current-layer="g2993" /><g
     id="g2993"
     inkscape:groupmode="layer"
     inkscape:label="Fachbereiche"
     transform="matrix(1.25,0,0,-1.25,0,625)"><path
       d="m 345.668,340.667 -47.832,0 0,71.75 47.832,0 0,-71.75 z m 0,-119.5 -47.832,0 0,71.75 47.832,0 0,-71.75 z m -71.82,119.5 -47.764,0 0,71.75 47.764,0 0,-71.75 z m 0,-119.5 -47.764,0 0,71.75 47.764,0 0,-71.75 z m -71.681,119.5 -47.75,0 0,71.75 47.75,0 0,-71.75 z m 0,-119.5 -47.75,0 0,71.75 47.75,0 0,-71.75 z m -71.667,227.084 0,-358.502 95.584,0 0,71.667 47.764,0 0,-71.667 95.652,0 0,358.502 -239,0 z"
       style="fill:#ffffff;fill-opacity:1;fill-rule:nonzero;stroke:none"
       id="path2997" /></g></svg>