<?xml version="1.0" encoding="UTF-8" standalone="no"?>
<!-- Created with Inkscape (http://www.inkscape.org/) -->

<svg
   xmlns:dc="http://purl.org/dc/elements/1.1/"
   xmlns:cc="http://creativecommons.org/ns#"
   xmlns:rdf="http://www.w3.org/1999/02/22-rdf-syntax-ns#"
   xmlns:svg="http://www.w3.org/2000/svg"
   xmlns="http://www.w3.org/2000/svg"
   xmlns:sodipodi="http://sodipodi.sourceforge.net/DTD/sodipodi-0.dtd"
   xmlns:inkscape="http://www.inkscape.org/namespaces/inkscape"
   id="svg3049"
   version="1.1"
   inkscape:version="0.48.4 r9939"
   width="625"
   height="625"
   xml:space="preserve"
   sodipodi:docname="Hörsäle.pdf"><metadata
     id="metadata3055"><rdf:RDF><cc:Work
         rdf:about=""><dc:format>image/svg+xml</dc:format><dc:type
           rdf:resource="http://purl.org/dc/dcmitype/StillImage" /><dc:title></dc:title></cc:Work></rdf:RDF></metadata><defs
     id="defs3053"><clipPath
       clipPathUnits="userSpaceOnUse"
       id="clipPath3069"><path
         d="M 0,500 500,500 500,0 0,0 0,500 z"
         id="path3071" /></clipPath></defs><sodipodi:namedview
     pagecolor="#ffffff"
     bordercolor="#666666"
     borderopacity="1"
     objecttolerance="10"
     gridtolerance="10"
     guidetolerance="10"
     inkscape:pageopacity="0"
     inkscape:pageshadow="2"
     inkscape:window-width="1280"
     inkscape:window-height="747"
     id="namedview3051"
     showgrid="false"
     inkscape:zoom="0.3776"
     inkscape:cx="312.5"
     inkscape:cy="312.5"
     inkscape:window-x="-8"
     inkscape:window-y="-8"
     inkscape:window-maximized="1"
     inkscape:current-layer="g3057" /><g
     id="g3057"
     inkscape:groupmode="layer"
     inkscape:label="Hörsäle"
     transform="matrix(1.25,0,0,-1.25,0,625)"><g
       id="g3065"><g
         id="g3067"
         clip-path="url(#clipPath3069)"><g
           id="g3073"
           transform="translate(141.9717,179.4727)"><path
             d="m 0,0 c -11.508,0 -20.836,9.326 -20.836,20.828 0,11.521 9.328,20.847 20.836,20.847 11.514,0 20.84,-9.332 20.84,-20.847 C 20.84,9.326 11.514,0 0,0"
             style="fill:#ffffff;fill-opacity:1;fill-rule:nonzero;stroke:none"
             id="path3075" /></g><g
           id="g3077"
           transform="translate(100,103.8887)"><path
             d="m 0,0 0,40.838 c 0,14.717 12.095,26.689 26.841,26.689 l 28.773,0 c 14.745,0 27.907,-11.968 27.907,-26.689 L 83.521,0 0,0 z"
             style="fill:#ffffff;fill-opacity:1;fill-rule:nonzero;stroke:none"
             id="path3079" /></g><g
           id="g3081"
           transform="translate(358.0508,181.2402)"><path
             d="m 0,0 c 11.512,0 20.84,9.356 20.84,20.843 0,11.526 -9.328,20.849 -20.84,20.849 -11.521,0 -20.843,-9.329 -20.843,-20.849 C -20.843,9.356 -11.521,0 0,0"
             style="fill:#ffffff;fill-opacity:1;fill-rule:nonzero;stroke:none"
             id="path3083" /></g><g
           id="g3085"
           transform="translate(400,103.8887)"><path
             d="m 0,0 0,40.838 c 0,14.717 -12.095,26.689 -26.853,26.689 l -28.743,0 c -14.762,0 -27.909,-11.968 -27.909,-26.689 L -83.505,0 0,0 z"
             style="fill:#ffffff;fill-opacity:1;fill-rule:nonzero;stroke:none"
             id="path3087" /></g><g
           id="g3089"
           transform="translate(249.978,221.3965)"><path
             d="m 0,0 c 11.639,0 21.083,-9.356 21.083,-20.912 0,-11.542 -9.444,-20.9 -21.083,-20.9 -11.651,0 -21.083,9.358 -21.083,20.9 C -21.083,-9.356 -11.651,0 0,0"
             style="fill:#ffffff;fill-opacity:1;fill-rule:nonzero;stroke:none"
             id="path3091" /></g><g
           id="g3093"
           transform="translate(199.2051,103.8887)"><path
             d="m 0,0 16.592,45.195 c 6.642,23.089 25.988,22.38 25.988,22.38 l 8.221,0 8.209,0 c 0,0 19.331,0.709 25.994,-22.38 L 101.593,0 0,0 z"
             style="fill:#ffffff;fill-opacity:1;fill-rule:nonzero;stroke:none"
             id="path3095" /></g><g
           id="g3097"
           transform="translate(249.978,247.7959)"><path
             d="m 0,0 0,49.447 -8.212,8.209 0,-49.428 -124.19,0 0,157.232 124.19,0 0,-80.774 8.212,-8.203 0,97.198 -140.578,0 L -140.578,0 0,0 z"
             style="fill:#ffffff;fill-opacity:1;fill-rule:nonzero;stroke:none"
             id="path3099" /></g><g
           id="g3101"
           transform="translate(358.0508,338.7803)"><path
             d="m 0,0 c 11.512,0 20.84,9.354 20.84,20.845 0,11.528 -9.328,20.848 -20.84,20.848 -11.521,0 -20.843,-9.326 -20.843,-20.848 C -20.843,9.354 -11.521,0 0,0"
             style="fill:#ffffff;fill-opacity:1;fill-rule:nonzero;stroke:none"
             id="path3103" /></g><g
           id="g3105"
           transform="translate(373.1445,332.1323)"><path
             d="m 0,0 -28.742,0 c -5.179,0 -10.145,-1.492 -14.434,-4.045 -5.096,-2.029 -9.404,-5.559 -12.363,-10.007 l -17.273,-26.062 -26.206,0.009 -37.017,37.015 c -1.389,1.398 -3.649,1.398 -5.035,0 -1.401,-1.392 -1.407,-3.653 -0.009,-5.047 l 35.217,-35.223 c -0.759,-1.258 -1.957,-3.815 -1.957,-5.425 0,-4.862 3.93,-8.771 8.77,-8.771 l 28.86,0 c 3.271,0 7.59,1.33 9.425,4.082 1.37,2.036 2.759,4.096 4.108,6.099 l 0,-11.364 0,-8.798 0,-18.672 10.587,0 72.656,0 0.268,0 0,18.672 0,8.798 0,32.046 C 26.855,-11.97 14.761,0 0,0"
             style="fill:#ffffff;fill-opacity:1;fill-rule:nonzero;stroke:none"
             id="path3107" /></g></g></g></g></svg>