<?xml version="1.0" encoding="UTF-8" standalone="no"?>
<!-- Created with Inkscape (http://www.inkscape.org/) -->

<svg
   xmlns:dc="http://purl.org/dc/elements/1.1/"
   xmlns:cc="http://creativecommons.org/ns#"
   xmlns:rdf="http://www.w3.org/1999/02/22-rdf-syntax-ns#"
   xmlns:svg="http://www.w3.org/2000/svg"
   xmlns="http://www.w3.org/2000/svg"
   xmlns:sodipodi="http://sodipodi.sourceforge.net/DTD/sodipodi-0.dtd"
   xmlns:inkscape="http://www.inkscape.org/namespaces/inkscape"
   id="svg3205"
   version="1.1"
   inkscape:version="0.48.4 r9939"
   width="625"
   height="625"
   xml:space="preserve"
   sodipodi:docname="ULB-Katalog.pdf"><metadata
     id="metadata3211"><rdf:RDF><cc:Work
         rdf:about=""><dc:format>image/svg+xml</dc:format><dc:type
           rdf:resource="http://purl.org/dc/dcmitype/StillImage" /><dc:title></dc:title></cc:Work></rdf:RDF></metadata><defs
     id="defs3209"><clipPath
       clipPathUnits="userSpaceOnUse"
       id="clipPath3221"><path
         d="M 0,500 500,500 500,0 0,0 0,500 z"
         id="path3223" /></clipPath></defs><sodipodi:namedview
     pagecolor="#ffffff"
     bordercolor="#666666"
     borderopacity="1"
     objecttolerance="10"
     gridtolerance="10"
     guidetolerance="10"
     inkscape:pageopacity="0"
     inkscape:pageshadow="2"
     inkscape:window-width="640"
     inkscape:window-height="480"
     id="namedview3207"
     showgrid="false"
     inkscape:zoom="0.3776"
     inkscape:cx="312.5"
     inkscape:cy="312.5"
     inkscape:window-x="0"
     inkscape:window-y="0"
     inkscape:window-maximized="0"
     inkscape:current-layer="g3213" /><g
     id="g3213"
     inkscape:groupmode="layer"
     inkscape:label="ULB-Katalog"
     transform="matrix(1.25,0,0,-1.25,0,625)"><g
       id="g3217"><g
         id="g3219"
         clip-path="url(#clipPath3221)"><g
           id="g3225"
           transform="translate(379.1357,184.1201)"><path
             d="m 0,0 c -45.328,-3.407 -82.677,-11.272 -113.488,-23.499 l 0,152.211 C -81.761,148.45 -37.225,156.016 0,159.139 L 0,0 z M -144.834,-23.499 C -175.646,-11.272 -212.996,-3.407 -258.322,0 l 0,159.14 c 37.224,-3.124 81.761,-10.689 113.488,-30.427 l 0,-152.212 z m 186.737,179.359 0,-180.033 -11.48,-1.845 0,181.878 0,36.423 c -61.671,-1.882 -120.053,-11.796 -159.584,-36.406 -39.532,24.61 -97.912,34.524 -159.584,36.406 l 0,-36.423 0,-181.878 -11.481,1.845 0,180.033 -18.91,0 0,-202.018 143.396,0 c 23.408,0 25.977,-14.365 46.579,-14.365 20.641,0 23.127,14.365 46.58,14.365 l 143.445,0 0,202.018 -18.961,0 z"
             style="fill:#ffffff;fill-opacity:1;fill-rule:nonzero;stroke:none"
             id="path3227" /></g></g></g></g></svg>